<svg xmlns="http://www.w3.org/2000/svg" viewBox="0 0 96 96" width="96" height="96">
  <g stroke-linecap="round" stroke-linejoin="round"><path d="M38 71c1-10 1-20 0-29 3-3 12-3 15 0-1 9-1 19 1 29-4 4-12 4-16 0Z" fill="#f8faf0" stroke="#c3d1b4" stroke-width="2.5"/><path d="M41 44c-2-10-1-20 1-29 5 9 7 19 6 30Z" fill="#4eaa61" stroke="#367f49" stroke-width="2"/><path d="M46 44c5-12 12-21 20-28-1 12-6 23-15 31Z" fill="#3f9855" stroke="#327746" stroke-width="2"/><path d="M42 45c-8-9-13-18-15-28 9 7 15 16 19 28Z" fill="#68b96e" stroke="#3d8b50" stroke-width="2"/><path d="M39 71c4 2 10 2 14 0" fill="none" stroke="#d3c28e" stroke-width="4"/></g>
</svg>
