<svg xmlns="http://www.w3.org/2000/svg" viewBox="0 0 256 256">
<defs>
    <linearGradient id="bg" x1="30" y1="20" x2="225" y2="235" gradientUnits="userSpaceOnUse">
      <stop stop-color="#ecfdf5"/>
      <stop offset="1" stop-color="#a7f3d0"/>
    </linearGradient>
    <linearGradient id="tomato" x1="74" y1="83" x2="186" y2="202" gradientUnits="userSpaceOnUse">
      <stop stop-color="#fb7185"/>
      <stop offset="1" stop-color="#dc2626"/>
    </linearGradient>
  </defs>
  <g transform="translate(128 128) scale(1.22) translate(-128 -128)">
  <circle cx="128" cy="147" r="65" fill="url(#tomato)" stroke="#991b1b" stroke-width="6"/>
  <path d="M128 91c-8-19-25-25-38-23 9 8 12 17 11 27-13-5-25-2-33 5 16 1 27 7 34 18 7-7 16-11 26-11s19 4 26 11c7-11 18-17 34-18-8-7-20-10-33-5-1-10 2-19 11-27-13-2-30 4-38 23z" fill="#15803d" stroke="#166534" stroke-width="4" stroke-linejoin="round"/>
  <path d="M73 79c17-29 94-37 120-2l-10 17H79z" fill="#facc15" stroke="#a16207" stroke-width="5" stroke-linejoin="round"/>
  <path d="M99 43h59l14 41H87z" fill="#fde047" stroke="#a16207" stroke-width="5" stroke-linejoin="round"/>
  <path d="M93 70h73" stroke="#dc2626" stroke-width="9"/>
  <ellipse cx="106" cy="143" rx="7" ry="9" fill="#422006"/>
  <ellipse cx="151" cy="143" rx="7" ry="9" fill="#422006"/>
  <path d="M101 169c15 15 39 15 54 0" fill="none" stroke="#fff7ed" stroke-width="7" stroke-linecap="round"/>
  <circle cx="83" cy="160" r="8" fill="#fda4af" opacity=".75"/>
  <circle cx="174" cy="160" r="8" fill="#fda4af" opacity=".75"/>
  </g>
</svg>
